HIERARCHY
ROOT Hips
{
 OFFSET 0.000000 0.000000 0.000000
 CHANNELS 6 Xposition Yposition Zposition Yrotation Xrotation Zrotation
 JOINT Chest
 {
  OFFSET 0.000000 10.383400 0.001500
  CHANNELS 3 Yrotation Xrotation Zrotation
  JOINT Chest2
  {
   OFFSET 0.000000 10.418200 -0.003100
   CHANNELS 3 Yrotation Xrotation Zrotation
   JOINT Chest3
   {
    OFFSET 0.000000 10.375100 0.000000
    CHANNELS 3 Yrotation Xrotation Zrotation
    JOINT Chest4
    {
     OFFSET 0.000000 10.364600 0.000000
     CHANNELS 3 Yrotation Xrotation Zrotation
     JOINT Neck
     {
      OFFSET 0.000000 15.642200 0.000000
      CHANNELS 3 Yrotation Xrotation Zrotation
      JOINT Head
      {
       OFFSET 0.000000 9.697300 -0.006500
       CHANNELS 3 Yrotation Xrotation Zrotation
       End Site
       {
        OFFSET 0.000000 18.492200 -0.003400
       }
      }
     }
     JOINT RightCollar
     {
      OFFSET -3.166800 10.349300 0.000000
      CHANNELS 3 Yrotation Xrotation Zrotation
      JOINT RightShoulder
      {
       OFFSET -14.729700 0.000000 0.000000
       CHANNELS 3 Yrotation Xrotation Zrotation
       JOINT RightElbow
       {
        OFFSET 0.000000 -32.224300 0.000000
        CHANNELS 3 Yrotation Xrotation Zrotation
        JOINT RightWrist
        {
         OFFSET 0.000000 -26.084100 0.000000
         CHANNELS 3 Yrotation Xrotation Zrotation
         End Site
         {
          OFFSET 0.000000 -19.319400 0.000000
         }
        }
       }
      }
     }
     JOINT LeftCollar
     {
      OFFSET 3.166800 10.349300 0.000000
      CHANNELS 3 Yrotation Xrotation Zrotation
      JOINT LeftShoulder
      {
       OFFSET 14.729700 0.000000 0.000000
       CHANNELS 3 Yrotation Xrotation Zrotation
       JOINT LeftElbow
       {
        OFFSET 0.000000 -32.224300 0.000000
        CHANNELS 3 Yrotation Xrotation Zrotation
        JOINT LeftWrist
        {
         OFFSET 0.000000 -26.084100 0.000000
         CHANNELS 3 Yrotation Xrotation Zrotation
         End Site
         {
          OFFSET 0.000000 -19.319400 0.000000
         }
        }
       }
      }
     }
    }
   }
  }
 }
 JOINT RightHip
 {
  OFFSET -8.428900 -0.007500 -0.000800
  CHANNELS 3 Yrotation Xrotation Zrotation
  JOINT RightKnee
  {
   OFFSET 0.000000 -43.834600 0.000700
   CHANNELS 3 Yrotation Xrotation Zrotation
   JOINT RightAnkle
   {
    OFFSET 0.000000 -42.757000 0.001200
    CHANNELS 3 Yrotation Xrotation Zrotation
    JOINT RightToe
    {
     OFFSET 0.000000 -6.946900 15.649300
     CHANNELS 3 Yrotation Xrotation Zrotation
     End Site
     {
      OFFSET 0.000000 -1.580800 6.825800
     }
    }
   }
  }
 }
 JOINT LeftHip
 {
  OFFSET 8.428900 -0.007500 -0.000800
  CHANNELS 3 Yrotation Xrotation Zrotation
  JOINT LeftKnee
  {
   OFFSET 0.000000 -43.834600 0.000700
   CHANNELS 3 Yrotation Xrotation Zrotation
   JOINT LeftAnkle
   {
    OFFSET 0.000000 -42.757000 0.001200
    CHANNELS 3 Yrotation Xrotation Zrotation
    JOINT LeftToe
    {
     OFFSET 0.000000 -6.946900 15.649300
     CHANNELS 3 Yrotation Xrotation Zrotation
     End Site
     {
      OFFSET 0.000000 -1.580800 6.825800
     }
    }
   }
  }
 }
}
MOTION
Frames: 14
Frame Time: 0.008333
0.000000 93.354300 0.000000 0.000000 -5.767877 0.000000 0.000000 11.653817 0.000000 0.000000 -5.885947 0.000000 0.000000 -0.000000 0.000000 0.000000 -0.000000 0.000000 0.000000 12.528835 0.000000 0.000000 0.711642 0.000000 0.000000 -0.000000 0.000000 0.000000 0.000000 -90.000000 0.000000 -2.309062 0.000000 0.000000 2.309062 0.000000 0.000000 -0.000000 0.000000 0.000000 -0.000000 90.000000 0.000000 -2.309062 0.000000 0.000000 2.309062 0.000000 0.000000 8.520406 0.000000 0.000000 1.905762 0.000000 -0.000000 -4.658285 0.000000 0.000000 -0.000000 0.000000 0.000000 8.520406 0.000000 0.000000 1.905762 0.000000 -0.000000 -4.658285 0.000000 0.000000 -0.000000 0.000000
21.016019 126.894976 -39.404164 -15.296328 -27.269504 -0.982462 -1.472955 16.679590 2.100114 -0.179710 1.724094 0.235868 -0.296468 2.876907 0.391427 -1.329796 14.698877 1.876497 1.584938 13.858263 -1.553871 3.592886 -9.976957 -3.530364 -0.714126 -5.046274 -4.587199 7.995672 -12.640406 -4.488635 28.153663 -41.745624 -8.357447 7.748866 6.485392 -24.896362 -0.270700 -6.845956 -2.123451 -3.249604 -7.353173 1.223468 -28.701778 -48.572116 13.324741 -22.300447 3.188048 17.874995 -4.633906 -42.246022 -1.359916 -31.563285 78.149976 -33.045047 3.977872 -8.453224 6.950478 0.004530 -0.010809 0.002010 -2.308423 -35.139996 -6.527049 -5.849348 71.048442 -1.983631 -13.403621 -7.765313 -4.259832 0.000126 -0.000375 0.000056
21.016473 126.894944 -39.404211 -15.293999 -27.269892 -0.982678 -1.471791 16.679313 2.095935 -0.181338 1.724437 0.238179 -0.293947 2.875621 0.387569 -1.330094 14.698827 1.876180 1.584242 13.858322 -1.548450 3.589847 -9.988338 -3.536556 -0.717632 -5.038434 -4.583749 7.989213 -12.642979 -4.492466 28.114567 -41.751191 -8.327769 7.768147 6.475413 -24.892122 -0.275621 -6.841721 -2.120664 -3.249020 -7.341444 1.218509 -28.697242 -48.581159 13.341378 -22.304872 3.181543 17.873353 -4.632162 -42.244366 -1.363030 -31.566158 78.149299 -33.045412 3.969806 -8.453684 6.948626 0.003420 -0.010877 0.001518 -2.304857 -35.139941 -6.531078 -5.857646 71.049415 -1.989749 -13.403330 -7.765281 -4.258046 0.000059 -0.000515 0.000026
21.016527 126.894846 -39.404440 -15.290711 -27.269917 -0.985636 -1.470827 16.678044 2.093825 -0.182311 1.725876 0.240397 -0.292350 2.873384 0.384933 -1.324022 14.696293 1.868341 1.579647 13.857501 -1.540758 3.579389 -10.007376 -3.540729 -0.726560 -5.026597 -4.571697 7.983617 -12.647524 -4.495787 28.094002 -41.756729 -8.308842 7.772855 6.470422 -24.890546 -0.284989 -6.836319 -2.109645 -3.249953 -7.328685 1.214249 -28.697099 -48.589451 13.359391 -22.306053 3.174277 17.869884 -4.642092 -42.239157 -1.357471 -31.555558 78.144439 -33.038645 3.967997 -8.456407 6.947790 0.002977 -0.007859 0.001321 -2.293884 -35.141308 -6.537530 -5.874745 71.052966 -1.997374 -13.401947 -7.763933 -4.256095 -0.000113 -0.001383 -0.000050
21.015875 126.894626 -39.405061 -15.289796 -27.268656 -0.991487 -1.465776 16.675511 2.096557 -0.178677 1.723260 0.235256 -0.294339 2.875160 0.389692 -1.319904 14.695438 1.867553 1.574017 13.850281 -1.545364 3.573637 -10.006137 -3.533683 -0.735071 -5.015222 -4.569865 7.974297 -12.650693 -4.490925 28.095151 -41.763094 -8.306040 7.755007 6.464067 -24.889088 -0.292194 -6.833372 -2.104008 -3.249204 -7.316579 1.207756 -28.708407 -48.596781 13.379170 -22.292352 3.172336 17.873706 -4.651311 -42.238870 -1.345633 -31.536541 78.139429 -33.027149 3.966478 -8.449936 6.950900 0.000720 -0.009233 0.000320 -2.293590 -35.144276 -6.533077 -5.883145 71.057616 -2.001982 -13.401198 -7.766320 -4.259807 0.000171 -0.001398 0.000076
21.016045 126.894523 -39.405062 -15.289368 -27.269272 -0.991231 -1.461923 16.675365 2.094146 -0.179992 1.723264 0.236330 -0.289723 2.873383 0.387229 -1.315596 14.693866 1.865893 1.571062 13.848508 -1.546453 3.564714 -10.007095 -3.528011 -0.746897 -5.006063 -4.566838 7.977446 -12.654485 -4.490589 28.064503 -41.766400 -8.280387 7.751884 6.449985 -24.900103 -0.299661 -6.829383 -2.097687 -3.249869 -7.309207 1.203536 -28.721719 -48.600573 13.393566 -22.283035 3.171373 17.875171 -4.655611 -42.237544 -1.341130 -31.534881 78.140041 -33.034100 3.965726 -8.451971 6.951147 -0.000651 -0.009116 -0.000289 -2.291998 -35.144228 -6.533806 -5.860961 71.060535 -1.982470 -13.406242 -7.769528 -4.261068 0.000218 -0.001478 0.000097
21.015709 126.894331 -39.405263 -15.288446 -27.268850 -0.993491 -1.460472 16.674769 2.095414 -0.178095 1.722853 0.235169 -0.289072 2.872458 0.387372 -1.309299 14.688844 1.862275 1.567766 13.849128 -1.545938 3.558333 -10.006078 -3.525714 -0.757649 -4.997895 -4.560636 7.978909 -12.648392 -4.492974 28.035111 -41.771805 -8.263475 7.733756 6.434092 -24.910589 -0.306026 -6.825912 -2.091211 -3.252777 -7.304218 1.202720 -28.713177 -48.606485 13.393185 -22.273750 3.166052 17.880192 -4.666430 -42.236156 -1.332844 -31.520097 78.139250 -33.025963 3.968594 -8.452952 6.947817 0.000246 -0.008285 0.000109 -2.290262 -35.145255 -6.532099 -5.863269 71.063752 -1.984426 -13.404638 -7.771611 -4.260500 0.000925 -0.000672 0.000411
21.016319 126.893967 -39.405397 -15.284060 -27.266383 -0.991613 -1.457383 16.670190 2.091643 -0.177876 1.721917 0.234513 -0.292823 2.873096 0.388401 -1.308238 14.687096 1.862035 1.567536 13.848441 -1.547331 3.553317 -10.004314 -3.527145 -0.761390 -4.991376 -4.560076 7.978895 -12.646631 -4.491588 28.005024 -41.768068 -8.244635 7.736892 6.423643 -24.919325 -0.310103 -6.824102 -2.092027 -3.246637 -7.298037 1.194992 -28.709553 -48.612276 13.402651 -22.283264 3.163118 17.874660 -4.674026 -42.238421 -1.332279 -31.501519 78.140680 -33.012457 3.959989 -8.456010 6.940213 0.000111 -0.009059 0.000049 -2.289113 -35.149385 -6.536891 -5.873450 71.067416 -1.996124 -13.399042 -7.773350 -4.258619 0.000602 -0.000473 0.000267
21.016795 126.893814 -39.405088 -15.284659 -27.266106 -0.987267 -1.452809 16.666609 2.089731 -0.169713 1.720757 0.234000 -0.291042 2.869647 0.387452 -1.317991 14.690589 1.863010 1.564356 13.850845 -1.546570 3.550382 -10.004605 -3.532805 -0.765893 -4.983773 -4.561318 7.980530 -12.644950 -4.492387 27.994594 -41.769099 -8.240114 7.726277 6.420811 -24.925675 -0.306462 -6.823996 -2.099701 -3.247490 -7.287659 1.196980 -28.710322 -48.617341 13.403279 -22.281419 3.160320 17.880375 -4.675747 -42.240681 -1.334274 -31.475621 78.148432 -32.990976 3.951292 -8.459808 6.933761 0.000559 -0.010571 0.000248 -2.284516 -35.151981 -6.536706 -5.886433 71.069668 -2.009594 -13.422538 -7.772387 -4.256586 -0.000573 -0.000666 -0.000254
21.017367 126.893070 -39.405923 -15.281384 -27.258186 -0.986015 -1.446981 16.659875 2.089781 -0.175727 1.718707 0.233318 -0.290570 2.868623 0.386948 -1.304172 14.682538 1.860058 1.557298 13.854604 -1.544612 3.540467 -10.001343 -3.528533 -0.775493 -4.974449 -4.556969 7.974570 -12.639422 -4.494347 27.986725 -41.769892 -8.237183 7.721776 6.415442 -24.926943 -0.319929 -6.818201 -2.096931 -3.239515 -7.281775 1.193786 -28.722671 -48.617533 13.408252 -22.273537 3.158382 17.887411 -4.684696 -42.247822 -1.329445 -31.474798 78.147150 -32.997428 3.951007 -8.464517 6.928838 0.002804 -0.009887 0.001244 -2.285572 -35.161805 -6.536946 -5.889120 71.069916 -2.014562 -13.429677 -7.770812 -4.255776 -0.000548 -0.000072 -0.000243
21.017814 126.892716 -39.405986 -15.284014 -27.254820 -0.982132 -1.443994 16.655741 2.085924 -0.176636 1.719019 0.234206 -0.289634 2.868448 0.384644 -1.302843 14.681041 1.861791 1.557367 13.851766 -1.554352 3.536657 -9.997849 -3.517656 -0.771769 -4.964029 -4.566570 7.966961 -12.645287 -4.488857 27.982471 -41.771651 -8.235098 7.716306 6.413710 -24.930284 -0.318979 -6.817831 -2.098562 -3.227664 -7.276733 1.185060 -28.741518 -48.617265 13.418540 -22.265158 3.153546 17.893958 -4.681943 -42.250933 -1.332120 -31.479401 78.147303 -33.003597 3.952800 -8.469637 6.926069 0.003346 -0.009588 0.001485 -2.283912 -35.165430 -6.544568 -5.868961 71.071995 -1.997943 -13.401474 -7.772275 -4.259670 0.001982 -0.000131 0.000880
21.017947 126.892830 -39.405306 -15.279850 -27.256189 -0.982722 -1.447789 16.657023 2.083882 -0.176441 1.719030 0.233473 -0.288615 2.868465 0.381101 -1.305066 14.681759 1.862020 1.562129 13.848029 -1.558215 3.540655 -9.997822 -3.517759 -0.769636 -4.963116 -4.567546 7.968925 -12.645133 -4.485178 27.976100 -41.770292 -8.235270 7.712532 6.419496 -24.933699 -0.314740 -6.819828 -2.097738 -3.223572 -7.273083 1.182734 -28.732640 -48.620613 13.416189 -22.262777 3.147033 17.893046 -4.686165 -42.248154 -1.333158 -31.485891 78.148236 -33.013910 3.951040 -8.475610 6.928524 0.001982 -0.010169 0.000880 -2.287781 -35.164125 -6.546315 -5.878915 71.072334 -2.007866 -13.398930 -7.774655 -4.259500 0.001614 -0.000118 0.000717
21.017897 126.892681 -39.405286 -15.275956 -27.253991 -0.985835 -1.447575 16.656174 2.081828 -0.176359 1.718634 0.233234 -0.290770 2.867213 0.380377 -1.301307 14.678266 1.853356 1.564357 13.848207 -1.549319 3.554537 -10.008664 -3.533504 -0.773879 -4.959117 -4.557434 7.974981 -12.643391 -4.479919 27.977370 -41.765021 -8.248185 7.714033 6.420830 -24.930322 -0.310806 -6.815573 -2.100052 -3.228301 -7.268697 1.192538 -28.730403 -48.623924 13.419142 -22.253328 3.142973 17.891809 -4.684216 -42.246172 -1.335531 -31.484371 78.146103 -33.008068 3.945498 -8.481271 6.929637 0.001412 -0.008431 0.000627 -2.290556 -35.166365 -6.542675 -5.928286 71.071481 -2.055652 -13.395948 -7.778082 -4.254084 -0.000108 -0.000236 -0.000048
21.017485 126.892370 -39.405813 -15.280194 -27.249461 -0.988412 -1.443209 16.653192 2.078087 -0.176050 1.717476 0.231794 -0.289365 2.866184 0.385462 -1.299049 14.676828 1.852139 1.565090 13.849130 -1.544840 3.556453 -10.009915 -3.533893 -0.772666 -4.956017 -4.556557 7.979290 -12.641137 -4.475730 27.972894 -41.765533 -8.252580 7.716163 6.426233 -24.923960 -0.308978 -6.810597 -2.099728 -3.229807 -7.265710 1.191741 -28.733557 -48.627540 13.426648 -22.249129 3.141441 17.890978 -4.679978 -42.248428 -1.331192 -31.489760 78.142308 -33.012959 3.946920 -8.482840 6.931512 -0.000067 -0.007858 -0.000030 -2.289106 -35.171647 -6.534506 -5.947401 71.071693 -2.071692 -13.407278 -7.778152 -4.253087 -0.000789 0.000188 -0.000350
